<svg width="967" height="967" viewBox="0 0 967 967" fill="none" xmlns="http://www.w3.org/2000/svg">
<path d="M360.2 706.8C353.2 706.8 345.5 704.467 337.1 699.8C329.167 695.133 325.2 687.2 325.2 676C325.2 669.933 330.1 659.667 339.9 645.2C349.7 630.267 361.833 612.767 376.3 592.7C391.233 572.633 406.167 551.867 421.1 530.4C429.967 517.8 441.867 501.933 456.8 482.8C471.733 463.2 487.833 442.433 505.1 420.5C522.833 398.1 539.633 376.167 555.5 354.7C571.833 333.233 585.6 313.867 596.8 296.6C602.867 287.267 607.767 278.4 611.5 270C615.233 261.6 617.1 254.367 617.1 248.3C617.1 239.433 613.133 232.667 605.2 228C597.267 222.867 583.967 220.3 565.3 220.3C550.367 220.3 529.6 222.633 503 227.3C476.867 231.5 447.7 237.8 415.5 246.2C383.767 254.6 351.333 264.4 318.2 275.6C290.667 284.933 263.6 295.2 237 306.4C210.867 317.6 187.067 329.267 165.6 341.4C144.133 353.067 126.633 364.733 113.1 376.4C109.833 379.667 106.8 383.633 104 388.3C101.667 392.5 100.5 396.467 100.5 400.2C100.5 403.467 101.9 406.733 104.7 410C107.5 412.8 112.633 414.2 120.1 414.2C126.167 414.2 129.2 415.367 129.2 417.7C129.2 418.633 128.033 419.567 125.7 420.5C123.367 421.433 120.8 421.667 118 421.2C97.9333 414.2 83.4667 406.5 74.6 398.1C66.2 389.7 62 381.067 62 372.2C62 365.2 69 356.8 83 347C97 337.2 115.9 326.933 139.7 316.2C163.5 305 190.333 294.033 220.2 283.3C250.533 272.1 281.8 261.833 314 252.5C355.533 240.367 396.833 230.567 437.9 223.1C478.967 215.167 515.833 211.2 548.5 211.2C579.767 211.2 604.967 215.633 624.1 224.5C643.7 232.9 653.5 247.133 653.5 267.2C653.5 276.067 648.833 288.433 639.5 304.3C630.633 319.7 618.5 337.433 603.1 357.5C588.167 377.1 571.833 397.633 554.1 419.1C536.367 440.567 518.867 461.8 501.6 482.8C484.333 503.333 468.7 522.233 454.7 539.5C440.7 556.767 429.967 571.233 422.5 582.9C420.633 586.633 419.7 589.9 419.7 592.7V593.4C419.7 596.2 420.633 597.833 422.5 598.3C424.367 598.767 426.233 597.833 428.1 595.5C437.433 584.767 450.733 570.533 468 552.8C485.267 535.067 504.867 515.7 526.8 494.7C548.733 473.7 571.367 453.4 594.7 433.8C618.5 413.733 641.6 396.467 664 382C680.333 371.267 696.9 362.867 713.7 356.8C730.5 350.733 744.267 347.7 755 347.7C760.6 347.7 765.733 349.8 770.4 354C775.533 358.2 779.5 363.1 782.3 368.7C785.567 373.833 787.2 378.033 787.2 381.3C787.2 390.167 783.467 401.833 776 416.3C768.533 430.3 758.967 446.167 747.3 463.9C736.1 481.633 724.433 500.533 712.3 520.6C700.633 540.667 690.133 560.967 680.8 581.5C671.467 601.567 665.4 620.933 662.6 639.6C662.6 640.533 662.6 641.7 662.6 643.1C662.6 644.5 663.067 645.433 664 645.9C666.333 646.367 667.5 647.3 667.5 648.7C667.5 651.5 664 652.9 657 652.9C645.8 652.9 640.2 646.6 640.2 634C640.2 629.333 640.667 624.433 641.6 619.3C643 613.7 644.633 607.867 646.5 601.8C651.633 584.067 657.467 566.567 664 549.3C671 531.567 678.233 515.467 685.7 501C693.633 486.533 701.333 472.067 708.8 457.6C716.733 442.667 723.967 427.033 730.5 410.7C733.767 402.767 735.4 395.533 735.4 389C735.4 382 733.767 376.633 730.5 372.9C727.233 369.167 723.267 367.3 718.6 367.3C705.533 367.767 688.967 374.767 668.9 388.3C648.833 401.833 626.9 419.567 603.1 441.5C579.3 462.967 555.267 486.533 531 512.2C506.733 537.867 483.867 563.3 462.4 588.5C440.933 613.7 422.267 636.567 406.4 657.1C390.533 677.167 379.1 692.567 372.1 703.3C369.767 705.633 365.8 706.8 360.2 706.8ZM803.3 698.4C800.5 698.4 796.067 697 790 694.2C783.933 691.867 776.933 687.667 769 681.6C762.467 676.933 759.2 668.067 759.2 655C759.2 650.8 759.433 646.367 759.9 641.7C760.833 637.033 761.767 632.133 762.7 627C765.5 614.867 769.933 601.567 776 587.1C782.067 572.633 788.367 558.633 794.9 545.1C801.9 531.1 808.2 518.733 813.8 508C819.867 497.267 824.3 489.567 827.1 484.9C829.9 479.767 832 475.333 833.4 471.6C835.267 467.867 836.433 464.833 836.9 462.5V461.1C836.9 458.767 835.967 456.9 834.1 455.5C832.7 454.1 830.6 453.867 827.8 454.8C824.533 455.733 818.233 460.633 808.9 469.5C799.567 477.9 790.933 486.067 783 494C772.733 504.733 760.833 518.5 747.3 535.3C733.767 551.633 720.7 568.2 708.1 585C695.967 601.8 686.167 616.5 678.7 629.1C676.833 632.367 675.2 634 673.8 634C673.333 634 673.1 633.533 673.1 632.6C673.1 631.667 673.567 629.8 674.5 627C675.9 623.733 679.633 617.667 685.7 608.8C691.767 599.467 698.3 589.433 705.3 578.7C712.3 567.967 718.833 558.4 724.9 550C730.967 541.133 734.7 535.767 736.1 533.9C754.767 507.767 774.133 483.733 794.2 461.8C814.733 439.867 835.967 418.167 857.9 396.7C860.7 398.567 864.433 399.733 869.1 400.2C873.767 400.667 877.967 401.367 881.7 402.3C884.5 402.767 887.067 404.167 889.4 406.5C891.733 408.367 892.9 411.633 892.9 416.3C892.9 422.367 891.033 429.367 887.3 437.3C882.633 448.5 875.867 462.267 867 478.6C858.6 494.467 849.5 511.033 839.7 528.3C830.367 545.1 821.5 560.967 813.1 575.9C804.7 590.367 797.933 602.033 792.8 610.9C781.6 630.5 776 647.767 776 662.7C776 675.767 780.9 682.3 790.7 682.3C796.767 682.3 804.933 679.267 815.2 673.2C818 671.333 821.967 667.367 827.1 661.3C832.7 655.233 837.133 649.4 840.4 643.8C841.8 641.467 842.967 640.533 843.9 641C845.3 641.467 845.533 642.867 844.6 645.2C842.267 649.867 839.7 654.767 836.9 659.9C834.567 664.567 832 669.233 829.2 673.9C825 681.367 820.8 687.2 816.6 691.4C812.4 696.067 807.967 698.4 803.3 698.4Z" fill="black"/>
</svg>
